# xmcd
#
# Track frame offsets:
#	150
#	18231
#	38073
#	55999
#	71417
#	86754
#	104900
#	123116
#	134939
#	150948
#	169557
#	188194
#
# Disc length: 2747 seconds
# Revision: 0
# Processed by: cddbd v1.5.2PL0 Copyright (c) Steve Scherf et al.
# Submitted via: dBpowerAMP V12.0
#
DISCID=9f0ab90c
DTITLE=Claudio Lacerda - Trilha Boiadeira
DYEAR=2015
DGENRE=Country
TTITLE0=Comitiva Bagua
TTITLE1=Comitiva Esperanca
TTITLE2=Boiadero errante
TTITLE3=Boi Soberano
TTITLE4=Triste berrante
TTITLE5=Vida de capataz
TTITLE6=Assinatura de boiadeiro
TTITLE7=Boiadeiro
TTITLE8=Boiada 
TTITLE9=Tocador de boi
TTITLE10=Disparada
TTITLE11=Vaqueiro de profissao
EXTD=
EXTT0=
EXTT1=
EXTT2=
EXTT3=
EXTT4=
EXTT5=
EXTT6=
EXTT7=
EXTT8=
EXTT9=
EXTT10=
EXTT11=
PLAYORDER=
